<?xml version="1.0" standalone="no"?>
<!DOCTYPE svg PUBLIC "-//W3C//DTD SVG 20010904//EN"
 "http://www.w3.org/TR/2001/REC-SVG-20010904/DTD/svg10.dtd">
<svg version="1.0" xmlns="http://www.w3.org/2000/svg"
 width="260.000000pt" height="260.000000pt" viewBox="0 0 260.000000 260.000000"
 preserveAspectRatio="xMidYMid meet">
<metadata>
Created by potrace 1.14, written by Peter Selinger 2001-2017
</metadata>
<g transform="translate(0.000000,260.000000) scale(0.100000,-0.100000)"
fill="#000000" stroke="none">
<path d="M1132 2590 c-557 -79 -988 -483 -1108 -1041 -26 -118 -26 -380 0
-498 59 -273 167 -473 361 -666 193 -194 393 -302 666 -361 118 -26 380 -26
498 0 273 59 473 167 666 361 194 193 302 393 361 666 14 62 18 127 18 249 0
122 -4 187 -18 249 -59 273 -167 473 -361 666 -190 190 -383 297 -645 356 -98
22 -340 33 -438 19z m801 -786 c109 -42 187 -135 203 -241 l7 -43 -75 0 -76 0
-28 58 c-42 83 -89 107 -209 107 -73 0 -98 -4 -131 -22 -50 -27 -76 -64 -81
-117 -9 -91 55 -136 262 -181 248 -54 340 -128 353 -280 18 -227 -192 -373
-480 -335 -182 24 -297 118 -322 263 l-7 37 80 0 79 0 11 -33 c26 -79 116
-127 237 -128 94 -1 148 15 192 55 32 30 36 39 40 95 4 61 4 62 -35 99 -42 40
-81 55 -253 93 -119 27 -186 56 -240 105 -57 52 -80 103 -80 183 0 85 16 134
62 186 47 53 91 82 166 106 75 25 253 21 325 -7z m-891 -13 c111 -43 180 -155
164 -269 -11 -84 -80 -170 -148 -187 -32 -8 -38 -25 -9 -25 62 0 153 -70 187
-145 67 -143 -7 -314 -162 -376 -56 -22 -73 -24 -326 -27 l-268 -3 0 531 0
532 253 -4 c232 -4 257 -6 309 -27z"/>
<path d="M640 1524 l0 -155 143 3 c161 3 206 18 241 77 24 41 25 116 2 159
-30 57 -78 72 -243 72 l-143 0 0 -156z"/>
<path d="M640 1065 l0 -178 153 5 c124 4 160 8 197 25 71 32 93 63 98 136 4
83 -17 123 -84 157 -45 23 -62 25 -206 29 l-158 3 0 -177z"/>
</g>
</svg>
