<?xml version="1.0" standalone="no"?>
<!DOCTYPE svg PUBLIC "-//W3C//DTD SVG 20010904//EN"
 "http://www.w3.org/TR/2001/REC-SVG-20010904/DTD/svg10.dtd">
<svg version="1.0" xmlns="http://www.w3.org/2000/svg"
 width="128.000000pt" height="128.000000pt" viewBox="0 0 128.000000 128.000000"
 preserveAspectRatio="xMidYMid meet">
<metadata>
Created by potrace 1.11, written by Peter Selinger 2001-2013
</metadata>
<g transform="translate(0.000000,128.000000) scale(0.100000,-0.100000)"
fill="#000000" stroke="none">
<path d="M639 894 c-42 -7 -107 -25 -146 -39 -63 -22 -85 -25 -216 -25 -181 0
-179 1 -218 -136 -35 -122 -35 -125 -3 -155 24 -22 34 -24 157 -28 128 -3 131
-4 151 -30 52 -66 133 -120 228 -150 35 -12 40 -10 85 20 26 18 66 47 87 66
l39 33 171 2 171 3 32 115 c51 182 48 190 -81 190 l-75 0 16 56 c20 67 19 68
-84 83 -96 14 -219 13 -314 -5z m-354 -114 c-14 -16 -31 -20 -75 -20 l-57 0
-18 -67 c-10 -38 -20 -74 -23 -81 -3 -10 3 -13 23 -10 23 2 30 10 41 48 8 28
10 46 4 48 -6 2 -10 10 -10 18 0 9 12 14 36 14 25 0 35 -4 32 -12 -3 -7 -13
-43 -23 -80 l-18 -68 -62 0 c-34 0 -64 3 -67 6 -7 7 41 195 55 212 6 8 38 12
95 12 84 0 85 0 67 -20z m55 -65 c0 -9 -9 -15 -25 -15 -14 0 -25 -2 -25 -4 0
-2 -3 -11 -6 -20 -5 -12 0 -16 20 -16 18 0 24 -4 20 -15 -4 -8 -16 -15 -29
-15 -13 0 -25 -6 -28 -14 -7 -18 1 -26 25 -26 10 0 18 -4 18 -10 0 -5 -21 -10
-46 -10 -39 0 -45 3 -40 17 4 9 14 45 22 80 l16 63 39 0 c28 0 39 -4 39 -15z
m71 -20 c6 -29 8 -27 23 18 3 9 13 17 21 17 11 0 15 -6 11 -17 -3 -10 -10 -38
-16 -63 -19 -77 -21 -80 -41 -80 -14 0 -19 7 -19 25 0 14 -4 25 -10 25 -5 0
-10 -9 -10 -20 0 -20 -25 -38 -36 -27 -3 3 -1 21 4 39 6 18 16 52 22 76 13 51
41 55 51 7z m167 23 c-3 -7 -15 -15 -29 -17 -42 -6 -54 -41 -13 -41 34 0 26
-24 -9 -28 -33 -4 -39 -42 -7 -42 11 0 20 -4 20 -10 0 -5 -20 -10 -44 -10
l-45 0 20 68 c10 37 21 73 24 80 2 7 22 12 46 12 28 0 39 -4 37 -12z m102 -3
c0 -8 -6 -15 -14 -15 -9 0 -20 -25 -31 -65 -14 -49 -22 -65 -36 -65 -17 0 -17
3 1 65 16 54 16 65 4 65 -15 0 -19 12 -7 23 3 4 24 7 45 7 27 0 38 -4 38 -15z
m60 6 c0 -4 -4 -21 -10 -37 -5 -16 -14 -48 -20 -71 -6 -26 -17 -43 -25 -43 -8
0 -15 6 -15 13 0 11 21 93 35 135 5 13 35 17 35 3z m108 -3 c-3 -7 -16 -14
-31 -16 -21 -3 -29 -11 -37 -40 -15 -55 -13 -72 10 -72 11 0 20 -4 20 -10 0
-5 -18 -10 -40 -10 -31 0 -40 4 -40 18 0 15 21 91 35 130 2 7 22 12 46 12 28
0 39 -4 37 -12z m52 0 c0 -7 -7 -37 -14 -66 -13 -46 -13 -54 0 -59 26 -10 14
-23 -22 -23 -25 0 -35 4 -32 13 3 6 13 42 23 80 11 41 23 67 31 67 8 0 14 -6
14 -12z m160 0 c-1 -41 -39 -143 -53 -146 -14 -3 -16 2 -11 27 5 25 3 31 -10
31 -10 0 -19 -11 -22 -30 -5 -20 -12 -30 -25 -30 -15 0 -16 4 -9 32 7 21 6 36
-1 45 -9 10 -8 13 5 13 9 0 16 7 16 16 0 38 20 54 65 54 30 0 45 -4 45 -12z
m120 -13 c0 -14 -4 -33 -9 -43 -6 -9 -13 -34 -16 -54 -6 -38 -6 -38 -55 -38
-28 0 -50 3 -50 6 0 7 29 123 35 142 3 7 22 12 50 12 41 0 45 -2 45 -25z
m-350 -175 c0 -5 -4 -10 -10 -10 -5 0 -10 -9 -10 -20 0 -11 -4 -20 -8 -20 -5
0 -7 14 -4 30 4 27 32 45 32 20z m54 2 c2 -4 -2 -18 -10 -32 -8 -15 -13 -19
-14 -10 0 13 -1 13 -10 0 -8 -13 -10 -13 -10 2 0 38 28 65 44 40z m86 1 c-1
-5 -7 -19 -15 -33 l-14 -25 1 33 c1 20 6 32 15 32 7 0 13 -3 13 -7z m95 -3 c9
-14 -13 -50 -30 -50 -18 0 -20 31 -3 48 15 15 25 15 33 2z m-379 -11 c4 -8 9
-7 15 2 10 17 12 -1 3 -25 -5 -13 -9 -14 -20 -5 -10 8 -14 8 -14 0 0 -6 -4
-11 -9 -11 -4 0 -6 11 -3 25 5 26 16 32 28 14z m72 -9 c11 25 11 25 11 2 1
-25 -24 -41 -40 -25 -5 5 -6 18 -2 29 6 17 8 17 14 -6 l6 -25 11 25z m153 -11
c-9 -22 -10 -22 -10 -3 -1 11 2 24 6 27 12 12 14 0 4 -24z m92 11 c-8 -30 -21
-34 -15 -5 2 14 8 25 12 25 5 0 6 -9 3 -20z m107 8 c0 -9 3 -8 10 2 13 21 19
9 8 -20 -7 -20 -11 -22 -19 -10 -8 13 -10 13 -19 0 -11 -17 -14 -1 -4 24 7 19
24 21 24 4z"/>
<path d="M986 684 c-4 -9 -4 -19 -2 -22 10 -9 36 8 36 23 0 20 -26 19 -34 -1z"/>
<path d="M1110 680 c0 -11 6 -20 14 -20 7 0 16 9 19 20 4 15 0 20 -14 20 -12
0 -19 -7 -19 -20z"/>
<path d="M1090 610 c0 -24 25 -27 34 -4 9 23 8 24 -14 24 -13 0 -20 -7 -20
-20z"/>
<path d="M1036 511 c-4 -7 -5 -15 -2 -18 9 -9 19 4 14 18 -4 11 -6 11 -12 0z"/>
</g>
</svg>
